<?xml version="1.0" encoding="UTF-8" standalone="no"?>
<svg
   xmlns:dc="http://purl.org/dc/elements/1.1/"
   xmlns:cc="http://creativecommons.org/ns#"
   xmlns:rdf="http://www.w3.org/1999/02/22-rdf-syntax-ns#"
   xmlns:svg="http://www.w3.org/2000/svg"
   xmlns="http://www.w3.org/2000/svg"
   xmlns:sodipodi="http://sodipodi.sourceforge.net/DTD/sodipodi-0.dtd"
   xmlns:inkscape="http://www.inkscape.org/namespaces/inkscape"
   height="16"
   viewBox="0 0 16 16"
   width="16"
   version="1.1"
   id="svg4"
   sodipodi:docname="Back.svg"
   inkscape:version="1.0.2 (1.0.2+r75+1)">
  <metadata
     id="metadata10">
    <rdf:RDF>
      <cc:Work
         rdf:about="">
        <dc:format>image/svg+xml</dc:format>
        <dc:type
           rdf:resource="http://purl.org/dc/dcmitype/StillImage" />
        <dc:title></dc:title>
      </cc:Work>
    </rdf:RDF>
  </metadata>
  <defs
     id="defs8" />
  <sodipodi:namedview
     pagecolor="#ffffff"
     bordercolor="#666666"
     borderopacity="1"
     objecttolerance="10"
     gridtolerance="10"
     guidetolerance="10"
     inkscape:pageopacity="0"
     inkscape:pageshadow="2"
     inkscape:window-width="1402"
     inkscape:window-height="940"
     id="namedview6"
     showgrid="false"
     inkscape:zoom="16.03125"
     inkscape:cx="7.6541304"
     inkscape:cy="15.224708"
     inkscape:window-x="412"
     inkscape:window-y="0"
     inkscape:window-maximized="0"
     inkscape:current-layer="svg4" />
  <circle
     style="fill:#f9f9f9;stroke:#ececec;stroke-width:1.72147;stroke-linecap:round;stop-color:#000000"
     id="path835"
     sodipodi:type="arc"
     sodipodi:cx="7.9920959"
     sodipodi:cy="7.9980178"
     sodipodi:rx="6.7934399"
     sodipodi:ry="6.8518753"
     sodipodi:start="1.0552781"
     sodipodi:end="1.0471976"
     sodipodi:open="true"
     sodipodi:arc-type="arc"
     d="M 11.341165,13.959405 A 6.7934399,6.8518753 0 0 1 2.0883271,11.387931 6.7934399,6.8518753 0 0 1 4.6191739,2.0503264 6.7934399,6.8518753 0 0 1 13.882237,4.5840746 6.7934399,6.8518753 0 0 1 11.388816,13.931916" />
  <path
     d="m7.9863 3.002a1 1 0 0 0 -.69336.29102l-4 4a1.0001 1.0001 0 0 0 0 1.4141l4 4a1 1 0 0 0 1.4141 0 1 1 0 0 0 0-1.4141l-2.293-2.293h4.5859a1 1 0 0 0 1-1 1 1 0 0 0 -1-1h-4.5859l2.293-2.293a1 1 0 0 0 0-1.4141 1 1 0 0 0 -.7207-.29102z"
     fill="#e0e0e0"
     fill-opacity=".99608"
     id="path2" />
</svg>
